<?xml version="1.0" encoding="UTF-8"?><svg id="b" xmlns="http://www.w3.org/2000/svg" width="99.56" height="23.08" viewBox="0 0 99.56 23.08"><g id="c"><path d="m81.96,23.08h2.56c.48,0,.88-.4.88-.88v-12.08c0-.48.56-.44.64.12l.16,1.12,1.76,10.64c.12.76.64,1.08,1.2,1.08h2.16c.56,0,1.08-.32,1.2-1.08l1.92-10.64.12-1.12c.08-.56.68-.6.68-.12v12.08c0,.48.4.88.88.88h2.56c.48,0,.88-.4.88-.88V.88c0-.48-.4-.88-.88-.88h-4.16c-.56,0-1.04.32-1.2,1.08l-2.16,9.76-.36,2.76c-.04.4-.6.4-.64,0l-.36-2.76-2.2-9.76c-.16-.76-.64-1.08-1.2-1.08h-4.44c-.48,0-.88.4-.88.88v21.32c0,.48.4.88.88.88Zm-8.56,0h2.56c.48,0,.88-.4.88-.88V.88c0-.48-.4-.88-.88-.88h-2.56c-.48,0-.88.4-.88.88v21.32c0,.48.4.88.88.88Zm-22.72,0h2.56c.48,0,.88-.4.88-.88v-12.08c0-.48.56-.44.64.12l.16,1.12,1.76,10.64c.12.76.64,1.08,1.2,1.08h2.16c.56,0,1.08-.32,1.2-1.08l1.92-10.64.12-1.12c.08-.56.68-.6.68-.12v12.08c0,.48.4.88.88.88h2.56c.48,0,.88-.4.88-.88V.88c0-.48-.4-.88-.88-.88h-4.16c-.56,0-1.04.32-1.2,1.08l-2.16,9.76-.36,2.76c-.04.4-.6.4-.64,0l-.36-2.76-2.2-9.76c-.16-.76-.64-1.08-1.2-1.08h-4.44c-.48,0-.88.4-.88.88v21.32c0,.48.4.88.88.88Zm-11.8-9.76l.56-3.04.32-2.48c.04-.4.6-.4.64,0l.28,2.48.52,3.04c.12.68-.04,1.2-.88,1.2h-.56c-.84,0-1-.52-.88-1.2Zm-4.68,9.76h2.04c.56,0,1.08-.32,1.2-1.08l.4-2.52c.12-.76.6-1,1.16-1h2.04c.56,0,1.04.24,1.16,1l.44,2.52c.12.76.64,1.08,1.2,1.08h2.04c1.04,0,1.28-.6,1.08-1.44L42.48,1.08c-.16-.76-.64-1.08-1.2-1.08h-2.48c-.56,0-1.04.32-1.2,1.08l-4.48,20.56c-.2.84.04,1.44,1.08,1.44ZM12.88,8.56v-3.36c0-.48.4-.88.88-.88h1.48c1.04,0,1.52.6,1.52,1.64v1.64c0,1.28-.6,1.84-1.72,1.84h-1.28c-.48,0-.88-.4-.88-.88Zm-3.44,14.52h2.56c.48,0,.88-.4.88-.88v-7.68c0-.48.4-.88.88-.88h1.44c.52,0,1.12.8,1.12,1.28v7.28c0,.48.4.88.88.88h2.56c.48,0,.88-.4.88-.88v-7.44c0-.48-.28-1.08-.72-1.48l-1-.92c-.28-.24-.4-.56-.04-.72,1.44-.6,2.2-1.8,2.2-3.36v-3.4c0-3.16-2-4.88-5.16-4.88h-6.48c-.48,0-.88.4-.88.88v21.32c0,.48.4.88.88.88Zm-8.56,0h2.56c.48,0,.88-.4.88-.88V.88c0-.48-.4-.88-.88-.88H.88c-.48,0-.88.4-.88.88v21.32c0,.48.4.88.88.88Z" fill="#005f41"/></g></svg>