<svg xmlns="http://www.w3.org/2000/svg" id="Layer_1" x="0" y="0" viewBox="0 0 600 600" style="enable-background:new 0 0 600 600" xml:space="preserve"><style>.st0{fill:#101119}.st1{fill:#0f1019}.st2{fill:#101019}.st3{fill:#0f1018}</style><path class="st0" d="M469.1 139.8c2.7 0 5.4.1 8.1 0 4-.1 5.9 1.9 6.3 5.7.2 2.2.2 4.3.3 6.5.1 5.8.5 6.3 6.1 7.2 21.7 3.5 42.3 10.3 61 22.2 27.2 17.4 44.4 41.8 48.5 74 5.8 44.3-23.1 78.8-59.7 89.3-6.1 1.7-12.2 2.9-18.5 2.8-4.2-.1-5.6-1.3-5.7-5.5-.2-5.1-.2-10.2 0-15.4.1-4.7 1.8-6.6 6.6-7.4 4.7-.8 9.4-1.3 13.9-2.9 21.3-7.7 36-27.2 36-49.7.1-16.4-6-31.1-16.5-43.7-14.7-17.8-34.4-26.9-56.2-32.7-10.2-2.7-20.6-4.1-31.1-5-7.6-.6-12.7-6.1-12.8-13.7-.1-8.5-.1-16.9 0-25.4 0-5 1.2-6.1 6.1-6.2 2.4-.1 5-.1 7.6-.1z"></path><path class="st1" d="M46.9 294v38.4c0 10.2-5.4 15.6-15.7 15.7-8.2.1-16.4.1-24.6 0-5-.1-6.5-1.6-6.6-6.4-.1-5.5 0-11 0-16.5 0-3.7 1.8-5.4 5.4-5.4h4.2c8.8 0 8.8 0 8.8-9v-60c0-5.7-.4-6.1-6-6.4-5.1-.3-6.8-1.7-6.9-6.7-.1-6 .4-12 .7-18 .2-3.3 2.7-3.6 5.3-3.7 13.1-.3 26.1 1.2 38.9 3.9 21.6 4.5 40.6 13.8 55.7 30.4 6.6 7.2 12.1 15.3 17.7 23.2 8.1 11.4 16.9 21.9 29.5 28.6 2.8 1.5 3.8 3.7 2.4 6.7-2.5 5.5-4.9 11-7.5 16.4-1.7 3.5-4.6 3.9-8.9 1.6-7-3.8-13.4-8.5-19.2-14-9.1-8.5-16.5-18.5-23.6-28.8-8.2-11.9-17.5-22.7-30.8-29.3-4.4-2.2-8.9-3.8-13.6-5.2-4.1-1.2-5.2-.4-5.2 3.9V294z"></path><path class="st2" d="M201.8 346.5c-11-.6-22.8-2.2-34.1-6.4-4.3-1.6-5.3-3.7-3.6-8.1 1.9-5 4.1-9.9 6.1-15 1.4-3.5 3.7-4.6 7.3-3.5 6.5 2 13 3.8 19.9 4.1 12.1.5 23.7-1.3 34.9-6.1 3.4-1.4 3.4-3.5 2.2-6.4-6-14-14.4-26.6-24.9-37.6-6.1-6.4-12.2-12.8-19.2-18.2-2.8-2.1-3.1-4.6-1.2-7.4 3.2-4.8 6.4-9.6 9.8-14.2 2.2-3 5-3.2 8.4-.6 3.7 2.9 7.4 5.9 10.9 9.1 14.7 13.5 27.4 28.7 37 46.4 1.3 2.5 2.4 5.1 3.6 7.6 1.5 3.1 3 3.6 5.6 1.3 5-4.2 10-8.4 14.6-13 10.3-10 20.2-20.3 30.5-30.3 6-5.8 12.1-11.5 19.1-16.1 4.6-3 6.1-2.7 8.7 2.1 2.5 4.6 4.9 9.3 7.2 14 2.1 4.3 1.6 5.7-2.2 8.8-9.4 7.7-17.9 16.4-26.4 25.1-20.5 21.1-41.8 41.2-68.9 53.9-14.1 6.7-28.9 9.9-45.3 10.5z"></path><path class="st0" d="M429.8 292.8v-48.4c0-5.5-.8-6.2-6.3-6.9-19.2-2.6-37.5.5-55.2 8-5 2.1-6.8 1.3-9-3.6-2.2-5.2-4.4-10.4-6.7-15.5-1.5-3.4-.5-5.7 2.9-7.1 15.9-6.4 32.1-11.2 49.4-11.9 15.1-.6 29.9 1.7 44.6 4.9 9.3 2 18.8 2.5 28.2 2.8 5.5.2 6.4.8 7.1 6.3.8 6.4-.6 12.8-.6 19.1 0 2.9-2.4 3.7-4.9 3.7-4.7 0-9.5 0-14.2.1-5.3.1-5.9.7-5.9 6.1v91.8c-.2 4.7-1.3 5.8-6.1 5.9-5.5.1-11 .1-16.5 0s-6.6-1.1-6.6-6.5c-.2-16.3-.1-32.5-.2-48.8z"></path><path class="st1" d="M342.2 428c0-5.5.1-11 0-16.5-.1-3.4 1.5-4.9 4.9-4.9 6.9.1 13.8-.1 20.7.1 6.1.1 10.1 3.4 10.8 9.4 1.1 10.1.5 20.2.3 30.3 0 2.2-1.4 3.2-3.5 3.2-2.5 0-3.8-1.4-3.9-3.8-.1-5.2-.1-10.5-.1-15.7 0-3.3 0-6.7-.1-10-.2-3.6-2.1-6-5.7-6.7-4.1-.8-8.2-.7-12.2-.3-3.1.2-3.4 2.6-3.4 5.1 0 8.8 0 17.7-.1 26.5 0 2 .1 4.2-2.6 4.9-2.9.7-4.9-.8-4.9-4.2-.3-5.9-.2-11.7-.2-17.4z"></path><path class="st2" d="M406 449.6h-12.3c-2.5 0-5.2 0-5.2-3.5.1-3.3 2.6-3.3 5-3.3 4.1-.1 8.2-.1 12.3 0 3.4.1 4.9-1.5 4.8-4.9-.1-5.5.1-11-.1-16.5-.1-5.6-2.2-7.9-7.9-8.4-3.2-.3-6.4-.2-9.6-.3-1.9-.1-3.7-.6-3.7-2.9-.1-2.4 1.6-3 3.6-3.1 5.4 0 10.8-.1 16.1.1 4.1.2 6.8 2.5 8.1 6.5.8 2.5 1.1 5 1.1 7.6V437c0 2.7.2 5.1 3.4 6.1 1.7.6 2 2.2 1.8 3.8-.3 1.9-1.6 2.6-3.3 2.6-4.7.1-9.4 0-14.1.1zM445.7 449.5c-3.7 0-4-2.1-3.4-4.7 1.6-7.6 3.2-15.3 4.9-22.9.3-1.3.5-2.5.7-3.8.6-3.2-.8-4.6-3.9-4.6-4.2 0-8.5-.1-12.7-.1-3 0-4.5-1.3-4.5-4.4v-14.2c0-2.5.8-4.3 3.7-4.3 3.1 0 3.9 1.9 3.9 4.5 0 2.4.1 4.9.1 7.3 0 2.9 1.5 4.2 4.3 4.2 4.6 0 9.2 0 13.8.1 4.2.1 4.8.9 4.1 4.8-2.2 11.3-4.5 22.6-6.8 33.9-.5 2.6-1.6 4.4-4.2 4.2zM203.2 406.7c2 0 4.1-.2 6.1 0 6.7.7 11.3 4.8 12.7 11.4.4 1.6.6 3.3.8 4.9 1.3 18.1-8.9 28.1-27 26.5-2.3-.2-4.1-.8-4.2-3.5 0-2.8 1.9-3.3 4.2-3.4 2.9-.1 5.9-.1 8.8-.4 4.5-.5 7.6-3 9.3-7.1 2.2-5.4 1.9-11.1.2-16.6-.9-3-3.5-4.2-6.3-5.1-3.6-1.1-7.4-.7-11.1-.9-2-.1-3.6-.8-3.5-3.1.1-2.1 1.6-2.8 3.4-2.8 2.3 0 4.5.1 6.6.1z"></path><path class="st1" d="M249.9 430.3c0 4.7-.1 9.5 0 14.2.1 3.5-1.4 5.3-5 5.2-3.8-.1-7.7 0-11.5-.1-2.3 0-4.1-.9-4-3.6 0-2.6 1.8-3.3 3.9-3.2 10.4.6 8.8-2 8.9-9.7.1-4.7 0-9.5 0-14.2 0-3.6-1.7-5.4-5.4-5.4-1.1 0-2.3-.1-3.4-.3-1.8-.3-2.5-1.6-2.5-3.3 0-1.6.7-2.9 2.4-3 3.9-.5 8-.8 11.8.3 3.6 1.1 4.5 4.4 4.7 7.7.2 5.1.1 10.2.1 15.3-.1.1-.1.1 0 .1z"></path><path class="st3" d="M306.8 430.8V445c0 2.3-.5 4.5-3.5 4.5s-3.4-2.2-3.4-4.5c0-7.3 0-14.6-.1-21.9-.1-7.8-2.4-10-10.1-10.3-2.8-.1-5.6 0-8.4-.1-1.8-.1-3.3-.7-3.4-2.8-.1-2.4 1.6-3.1 3.5-3.1 5.4-.1 10.7-.2 16.1.1 5.5.3 8.9 3.9 9.2 9.4.2 4.8 0 9.6.1 14.5-.1 0 0 0 0 0z"></path><path class="st2" d="M157.6 433.9V455c0 2.5 0 5.2-3.5 5.2-3.3 0-3.3-2.6-3.3-5v-43.4c0-2.4 0-4.9 3.3-5 3.6 0 3.5 2.7 3.5 5.2v21.9z"></path><path class="st3" d="M180.7 427.7v16.9c0 2.7-.7 4.9-4 4.9-3.2 0-3.6-2.3-3.6-4.7v-33c0-2.6.3-5 3.7-5 3.4 0 3.9 2.2 3.9 4.9v16z"></path><path class="st2" d="M328.3 428.3v16.1c0 2.4 0 4.9-3.3 5-3.3.1-3.5-2.4-3.5-4.8v-33c0-2.4.2-4.9 3.5-4.8 3.3.1 3.3 2.6 3.3 5 .1 5.5 0 11 0 16.5z"></path></svg>